<?xml version="1.0" standalone="no"?>
<!DOCTYPE svg PUBLIC "-//W3C//DTD SVG 20010904//EN" 
"http://www.w3.org/TR/2001/REC-SVG-20010904/DTD/svg10.dtd">
<svg version="1.0" xmlns="http://www.w3.org/2000/svg" preserveAspectRatio="xMidYMid meet"
width="371" height="397"  viewBox="0 0 371 397">
<g>
<path d="M135.2 2.8
C132.0 2.9 122.8 7.3 119.8 10.1
C115.0 14.7 114.6 17.3 114.2 50.5
C113.9 77.1 114.1 82.4 115.5 88.0
C118.5 99.6 122.2 104.1 129.9 105.9
C136.5 107.4 162.0 109.7 162.0 108.8
C162.0 108.0 154.4 107.2 139.9 106.6
C125.8 105.9 120.5 102.0 117.4 90.0
C116.2 85.1 115.8 77.3 115.7 51.7
C115.5 19.7 115.5 19.5 117.8 16.0
C119.1 14.1 120.9 11.2 121.8 9.6
C123.7 6.4 129.9 3.1 134.5 2.9
C136.2 2.8 136.5 2.7 135.2 2.8Z" />
<path d="M243.5 2.0
C362.4 2.6 354.3 2.1 361.7 9.2
C367.2 14.5 367.5 17.1 367.5 54.0
C367.5 91.9 366.9 97.3 361.9 101.4
C356.4 106.0 352.0 106.3 279.5 106.9
L211.5 107.5
L176.0 130.4
C156.5 143.0 140.1 153.7 139.7 154.3
C139.3 154.8 143.6 145.9 149.4 134.5
C155.2 123.1 159.9 112.8 159.7 111.7
C159.6 110.4 155.1 118.8 148.8 132.2
C142.8 144.7 138.0 155.3 138.0 155.6
C138.0 157.3 143.4 154.1 163.6 140.5
C175.6 132.3 191.8 122.0 199.6 117.4
L213.6 109.1
L281.1 108.3
C357.0 107.3 357.8 107.2 363.5 100.9
C365.9 98.3 367.1 95.6 367.7 92.3
C368.1 89.7 368.5 72.2 368.5 53.5
L368.5 19.5
L365.5 13.5
C362.8 8.2 361.8 7.2 356.6 4.5
L350.6 1.5
L136.5 1.4
L243.5 2.0Z" />
<path d="M50.8 143.9
C42.2 147.2 35.3 151.0 30.7 155.1
C24.8 160.3 17.5 172.0 13.0 183.7
C11.9 186.5 10.1 190.5 8.9 192.7
C6.4 197.5 4.7 215.6 5.9 226.2
C7.0 235.7 9.1 240.1 14.9 244.9
C22.7 251.4 24.3 252.0 31.2 251.7
C42.9 251.1 42.5 251.2 44.8 247.1
C46.0 245.0 47.0 242.5 47.0 241.6
C47.0 239.8 53.2 239.5 59.2 241.1
C63.9 242.3 73.8 250.5 74.7 253.8
C75.2 255.8 74.8 256.5 72.4 257.6
L69.5 259.0
L75.1 263.6
L73.6 271.5
C72.7 275.9 70.9 282.2 69.6 285.5
C67.8 289.7 67.2 292.7 67.5 295.3
C67.9 298.1 67.5 299.8 66.1 301.6
C63.5 304.8 62.6 310.7 63.9 315.6
C64.5 317.7 65.2 321.3 65.5 323.6
L66.0 327.7
L59.8 328.8
C47.5 331.0 36.1 335.7 35.3 339.0
C34.7 341.1 32.5 341.3 32.5 339.2
C32.5 338.3 27.6 337.8 16.3 337.4
C1.9 336.9 0.0 337.0 0.0 338.4
C0.0 339.8 1.4 340.0 9.3 339.7
C24.7 339.2 28.7 339.6 29.2 341.8
C29.6 343.3 31.0 343.8 35.1 344.3
C41.0 345.0 45.7 344.0 57.5 339.5
C61.4 338.0 65.2 336.9 66.0 336.9
C66.8 337.0 74.3 337.5 82.5 337.9
C96.1 338.7 103.0 340.0 111.0 343.2
C113.1 344.0 114.2 343.7 117.4 341.5
L121.3 338.8
L144.9 338.8
C157.9 338.8 177.7 338.4 189.0 338.1
C200.3 337.7 211.8 337.7 214.5 338.2
C217.3 338.6 223.6 339.5 228.7 340.1
L237.8 341.2
L238.4 347.3
C239.2 354.7 240.1 360.2 243.6 377.5
C246.9 394.0 247.9 397.0 249.7 397.0
C251.0 397.0 251.1 396.4 250.1 392.8
C249.5 390.4 246.6 377.0 243.7 363.0
L238.4 337.5
L230.5 336.8
C226.1 336.4 205.3 336.3 184.3 336.6
L146.1 337.1
L144.7 334.8
C143.5 333.0 143.3 329.6 143.6 320.1
C143.7 313.2 143.5 307.2 143.0 306.6
C142.6 306.0 141.9 302.8 141.6 299.5
C140.3 287.8 133.4 278.5 127.0 279.9
C124.2 280.6 121.8 283.0 119.0 288.2
C116.4 292.8 117.1 307.2 120.5 319.3
C120.9 320.7 120.5 321.1 119.3 320.8
C117.4 320.5 115.6 315.4 114.1 306.0
C111.8 292.7 108.9 285.5 104.6 282.6
C100.3 279.9 93.0 263.7 93.0 257.1
C93.0 255.5 93.7 253.7 94.5 253.0
C95.9 251.9 95.8 251.5 94.1 249.6
C92.2 247.5 92.2 247.5 94.5 245.8
C97.5 243.5 97.6 243.5 98.4 247.0
C99.0 250.5 100.9 250.8 103.4 248.1
C105.0 246.3 105.2 244.5 104.1 239.2
C103.8 238.1 106.0 236.9 118.0 231.8
C122.9 229.7 129.3 228.3 138.2 227.3
C143.0 226.8 144.6 226.1 148.7 222.5
C151.5 220.0 154.8 215.8 156.5 212.5
C159.3 207.0 159.4 206.2 158.9 197.1
C158.3 185.2 155.9 178.9 149.3 172.2
C143.3 166.1 138.9 162.9 132.5 160.0
C127.9 158.0 126.1 157.8 111.5 157.9
C95.2 158.0 87.0 157.1 84.4 155.0
C82.9 153.7 82.6 152.1 83.8 151.8
C84.6 151.5 84.1 147.6 83.2 147.3
C82.9 147.2 81.7 147.6 80.7 148.2
C79.2 148.9 77.4 148.6 73.0 146.6
C64.3 142.7 56.6 141.8 50.8 143.9Z
M53.0 146.7
C60.6 145.4 70.2 148.7 78.3 155.2
C81.7 157.9 85.3 160.1 86.5 160.1
C87.6 160.1 90.0 160.8 91.8 161.5
C94.4 162.7 97.7 162.7 109.8 161.8
L109.8 161.8
L124.5 160.7
C140.8 169.1 149.0 176.5 152.6 183.3
C155.1 187.9 155.4 189.6 155.5 197.5
C155.5 212.5 155.6 212.4 149.5 218.3
C143.7 224.0 140.0 225.6 131.2 226.5
C128.4 226.8 124.9 227.5 123.5 228.0
C119.8 229.4 118.0 229.2 118.6 227.6
C119.5 225.2 117.0 224.7 113.7 226.7
C111.9 227.7 108.0 230.5 104.8 232.8
C98.5 237.5 98.3 237.6 95.9 235.4
C93.5 233.3 90.6 232.8 82.5 233.3
L82.5 233.3
L75.5 233.8
C69.3 227.1 68.0 224.7 67.5 221.5
C67.2 219.0 66.4 217.0 65.8 217.0
C63.9 217.0 61.0 220.2 61.0 222.2
C61.0 224.3 62.1 224.5 63.8 222.8
C64.7 221.9 65.0 221.9 65.1 222.8
C65.2 223.5 65.1 224.1 64.9 224.3
C64.3 224.7 68.4 230.3 71.5 233.3
C74.4 236.1 74.9 236.2 83.8 236.2
C91.0 236.2 93.5 236.6 95.2 237.9
C97.3 239.6 97.3 239.6 93.0 244.1
C90.3 246.9 87.3 248.9 84.6 249.6
C82.4 250.3 79.9 251.3 79.3 252.0
C78.3 252.9 77.7 252.6 76.6 250.4
C75.0 247.1 67.4 240.5 63.5 239.0
C62.1 238.5 59.1 238.0 57.0 238.0
C50.3 238.0 48.2 236.7 48.2 232.3
C48.1 224.0 35.2 197.0 31.4 197.0
C29.4 197.0 29.5 197.2 34.4 205.8
C40.3 216.2 45.1 229.9 44.3 234.2
C42.5 244.2 41.7 246.2 39.3 247.1
C36.1 248.3 30.3 248.3 29.5 247.0
C29.1 246.4 30.5 246.0 33.0 246.0
C36.7 246.0 37.1 245.7 38.6 242.3
C39.6 239.9 40.1 235.5 40.1 230.2
C40.1 223.3 39.7 221.3 37.8 218.0
C36.5 215.9 34.1 211.5 32.3 208.3
C28.4 201.1 22.1 194.9 18.3 194.7
C15.8 194.5 15.4 195.0 13.7 200.5
C12.0 205.9 11.9 207.7 12.9 218.8
C13.7 229.2 14.3 231.8 16.7 236.0
C19.9 241.6 19.2 243.6 15.6 239.4
C9.9 232.8 9.4 230.8 10.2 215.2
C11.3 194.2 12.4 189.1 18.5 176.5
C22.3 168.6 25.0 164.4 28.0 161.7
C30.3 159.7 33.8 156.5 35.8 154.7
C39.4 151.5 47.8 147.5 53.0 146.7Z
M81.5 259.5
C87.9 257.2 89.0 257.8 91.1 264.3
C92.1 267.5 94.1 271.7 95.5 273.8
C98.3 277.9 98.7 280.0 96.7 280.0
C94.5 280.0 91.0 284.4 89.0 289.9
C86.3 297.0 86.5 304.3 89.5 312.5
C91.0 316.3 91.9 319.9 91.6 320.7
C91.0 322.0 84.5 322.5 81.6 321.4
C80.3 320.9 80.6 320.3 83.0 317.8
C85.6 315.2 85.9 314.3 85.5 310.7
C83.0 289.8 82.8 288.9 81.4 290.3
C81.0 290.6 81.2 296.0 81.8 302.2
C83.0 314.4 82.8 315.0 77.9 317.6
C73.5 319.8 72.7 319.4 73.3 315.5
C74.0 311.2 72.6 310.9 71.1 315.0
C70.6 316.7 69.6 318.0 69.1 318.0
C67.5 318.0 66.7 313.4 67.9 311.2
C69.4 308.5 69.3 308.0 67.4 307.8
C65.2 307.4 65.4 306.6 68.1 303.9
C69.9 302.1 70.4 300.4 70.5 294.6
C70.6 288.9 71.2 286.7 73.3 283.2
C75.5 279.7 76.0 277.7 75.9 272.7
C75.9 269.3 76.4 265.5 77.0 264.3
C77.7 263.0 78.1 261.8 77.9 261.5
C77.7 261.2 79.3 260.3 81.5 259.5Z
M93.8 284.8
C96.7 283.3 100.7 284.0 102.9 286.4
C105.6 289.3 105.1 290.5 101.0 291.3
C95.8 292.4 97.4 294.2 102.8 293.3
L102.8 293.3
L107.5 292.5
C107.5 297.6 106.8 298.7 104.8 299.7
C100.2 302.0 101.8 305.0 106.5 302.8
C110.0 301.2 111.3 302.7 111.6 308.7
C111.7 311.4 112.6 317.3 113.6 322.0
C115.5 331.5 115.6 336.6 113.8 339.3
C112.8 340.7 112.2 340.8 110.5 339.9
C105.3 337.1 91.5 335.0 80.9 335.5
C71.6 335.9 70.1 335.8 68.8 334.3
C68.0 333.3 67.5 331.4 67.7 330.0
L67.7 330.0
C68.3 326.0 68.2 324.7 68.0 323.6
C67.7 321.4 69.8 321.3 77.0 322.9
C79.5 323.5 83.6 324.2 86.2 324.5
C88.8 324.8 92.1 325.5 93.5 326.2
C96.7 327.6 99.1 326.0 97.1 323.7
C95.0 321.1 90.1 305.1 89.7 299.2
C89.3 293.1 91.2 286.1 93.8 284.8Z
M123.3 285.9
C126.6 282.8 129.8 283.5 134.2 288.2
C138.4 292.8 138.9 294.1 136.3 293.9
C134.1 293.8 130.0 295.7 130.0 296.9
C130.0 297.4 132.0 297.5 134.4 297.3
C138.2 296.8 138.9 297.0 139.5 298.9
C140.4 301.8 139.4 303.0 135.9 303.0
C134.0 303.0 133.0 303.5 133.0 304.5
C133.0 305.8 133.7 306.0 136.4 305.5
C139.1 304.9 139.8 305.1 139.9 306.7
C140.0 307.7 140.6 314.7 141.2 322.3
L141.2 322.3
L142.3 336.0
C138.6 335.2 133.6 335.4 128.8 335.9
L128.8 335.9
L120.0 336.8
C120.0 332.5 119.7 329.8 119.4 328.1
C118.8 325.3 119.0 325.0 121.4 325.0
C124.6 325.0 125.8 322.6 123.7 320.2
C122.1 318.3 121.3 315.2 120.0 305.9
C118.9 298.1 120.5 288.6 123.3 285.9Z
M45.0 334.2
C51.9 331.6 57.5 332.0 58.4 335.2
C59.1 338.3 58.5 338.7 49.8 340.9
C42.1 342.9 38.0 342.8 38.0 340.5
C38.0 337.7 39.7 336.2 45.0 334.2Z" />
<path d="M65.3 150.6
C64.6 151.4 64.0 152.7 64.0 153.5
C64.0 154.7 64.5 154.7 66.8 153.8
C68.3 153.2 69.9 152.8 70.4 152.9
C71.5 153.1 69.1 150.1 67.6 149.5
C67.0 149.3 65.9 149.7 65.3 150.6Z" />
<path d="M68.9 177.4
C66.7 182.5 67.0 184.0 70.4 184.0
C73.4 184.0 75.5 179.4 74.3 175.4
C73.2 171.4 71.3 172.1 68.9 177.4Z" />
<path d="M82.4 176.4
C81.2 181.4 81.5 182.5 84.2 183.3
C86.7 184.1 86.9 183.9 87.6 180.6
C88.4 176.1 87.6 174.0 85.1 174.0
C83.8 174.0 82.8 174.9 82.4 176.4Z" />
<path d="M115.1 186.3
C113.8 186.9 112.5 188.4 112.2 189.6
C111.4 192.9 112.8 196.7 114.7 196.9
C115.7 196.9 118.9 197.2 121.8 197.5
C126.1 197.9 127.3 197.7 129.0 196.0
C130.9 194.1 131.0 191.1 129.2 188.4
C127.5 185.8 118.6 184.5 115.1 186.3Z" />
</g>
</svg>
