<?xml version="1.0" standalone="no"?>
<!DOCTYPE svg PUBLIC "-//W3C//DTD SVG 20010904//EN" 
"http://www.w3.org/TR/2001/REC-SVG-20010904/DTD/svg10.dtd">
<svg version="1.0" xmlns="http://www.w3.org/2000/svg" preserveAspectRatio="xMidYMid meet"
width="309" height="393"  viewBox="0 0 309 393">
<g>
<path d="M253.0 0.6
C252.2 0.7 248.4 1.6 244.6 2.5
C211.6 10.7 191.0 23.3 177.0 44.0
C166.9 58.9 163.6 66.4 162.5 77.8
C161.5 87.2 161.2 87.3 137.7 87.0
C118.9 86.7 118.3 86.8 107.4 89.8
C79.0 97.6 56.3 106.9 43.6 116.0
C17.5 134.5 16.2 135.7 9.8 146.0
C7.6 149.5 5.0 153.8 3.9 155.5
C-2.2 164.8 1.3 186.3 10.2 194.7
C15.0 199.2 25.1 201.5 36.4 200.6
C41.9 200.2 44.4 199.4 48.4 196.9
C55.5 192.4 67.8 179.8 80.0 164.5
C85.7 157.4 94.1 147.6 98.6 142.9
C103.2 138.1 111.4 129.6 116.8 123.9
C124.5 115.8 128.1 112.9 132.8 110.6
C136.2 109.1 140.7 106.9 142.7 105.8
C146.0 104.1 147.1 104.0 150.9 104.9
C159.2 107.1 158.7 105.7 158.8 126.7
C159.1 161.4 165.0 190.8 177.7 219.5
C185.5 237.2 193.3 249.0 206.3 262.7
C218.1 275.1 229.3 281.5 244.0 284.0
C252.5 285.6 261.5 283.4 267.0 278.4
C272.4 273.5 276.9 263.0 278.3 252.0
C280.7 232.6 273.5 204.0 260.4 181.1
C241.7 148.2 221.3 125.1 192.0 103.3
C187.7 100.1 171.0 90.7 171.6 91.9
C171.7 92.0 172.6 88.8 173.5 84.8
C174.5 80.8 175.7 77.0 176.4 76.4
C178.9 73.9 204.2 66.3 231.0 60.0
C238.4 58.3 245.9 56.5 247.5 56.0
C249.2 55.5 257.5 53.2 266.0 50.9
C281.7 46.7 289.8 42.9 301.7 34.1
C312.7 26.0 307.7 12.4 291.4 6.1
C283.0 2.9 260.0 -0.4 253.0 0.6Z" />
<path d="M102.7 346.5
L102.5 385.2
L105.8 388.1
C108.5 390.4 110.0 391.0 113.9 391.0
C117.8 391.0 118.9 390.6 119.3 389.1
C120.0 386.3 118.9 385.3 114.5 384.3
L110.5 383.5
L109.5 307.5
L102.9 307.9
L102.7 346.5Z" />
<path d="M25.8 316.2
C25.3 316.7 25.0 320.3 25.0 324.1
L25.0 331.0
L20.4 331.0
C16.2 331.0 15.9 331.2 15.7 333.8
C15.5 336.3 15.9 336.6 20.3 337.3
L25.0 338.1
L25.0 386.1
L27.5 388.5
C29.7 390.7 30.7 391.0 38.0 391.0
L46.0 391.0
L46.0 388.0
C46.0 385.1 45.9 385.1 38.8 384.3
L31.5 383.5
L32.0 338.0
L38.9 338.0
C44.8 338.0 46.0 337.7 46.5 336.1
C47.8 332.1 46.2 331.0 38.9 331.0
L32.0 331.0
L32.0 324.1
C32.0 317.1 32.0 317.1 27.7 315.6
C27.0 315.3 26.2 315.6 25.8 316.2Z" />
<path d="M62.3 329.5
C57.1 332.6 53.8 335.4 51.3 338.8
C48.7 342.4 48.6 342.9 48.7 356.4
C48.8 373.2 50.1 379.9 54.2 384.6
C59.5 390.7 63.6 392.1 73.7 391.5
C82.3 390.9 93.0 387.8 93.7 385.5
C93.8 385.0 93.4 383.7 92.6 382.6
C91.4 380.8 91.2 380.8 86.4 382.6
C80.4 384.8 66.5 385.1 63.2 383.2
C61.9 382.5 59.8 380.2 58.5 378.2
C56.4 375.1 56.1 373.7 56.5 369.3
L57.0 364.0
L95.0 364.0
L94.5 353.8
C94.2 348.1 93.4 341.9 92.6 340.0
C91.0 335.6 86.4 331.6 80.7 329.5
C75.6 327.7 65.3 327.7 62.3 329.5Z
M63.5 336.7
C65.2 335.2 66.4 335.0 72.7 335.7
C77.6 336.3 80.6 337.2 82.1 338.5
C85.5 341.6 88.0 347.5 88.0 352.5
L88.0 352.5
L88.0 357.0
L57.0 357.0
C57.0 345.1 58.9 341.0 63.5 336.7Z" />
<path d="M133.5 329.5
C130.8 330.4 128.6 332.2 126.8 334.9
C121.4 342.9 121.0 344.5 121.0 360.0
C121.0 374.0 121.1 374.7 123.9 380.2
C128.5 389.0 131.6 390.5 145.9 390.5
C155.5 390.5 158.2 390.2 161.5 388.5
C166.6 386.0 167.4 384.9 165.8 382.7
C164.5 381.0 164.2 381.0 159.5 383.1
C156.8 384.3 151.8 385.5 148.4 385.8
C136.5 386.7 129.0 380.1 129.0 368.7
L129.0 364.0
L168.0 364.0
L168.0 355.9
C168.0 351.5 167.5 345.8 166.8 343.3
C165.4 337.6 160.0 331.9 154.4 330.2
C147.8 328.3 138.0 327.9 133.5 329.5Z
M136.5 336.0
C137.6 335.5 141.0 335.1 144.0 335.1
C153.8 335.0 159.6 340.7 160.7 351.6
L160.7 351.6
L161.3 357.0
L129.0 357.0
C129.0 346.0 132.7 337.5 136.5 336.0Z" />
<path d="M192.6 330.0
C191.0 331.1 188.2 333.6 186.4 335.6
L183.0 339.1
L183.0 334.6
C183.0 330.0 183.0 330.0 179.5 330.0
L176.0 330.0
L175.5 390.5
L181.5 390.5
L183.0 348.2
L187.1 343.6
C189.4 341.0 192.5 338.3 194.1 337.5
C199.3 334.8 208.0 336.0 209.7 339.7
C210.1 340.7 210.7 352.5 211.0 366.0
L211.5 390.5
L217.5 390.5
L218.3 366.2
C219.0 343.2 218.9 341.8 217.0 338.1
C214.2 332.5 210.0 329.9 202.2 328.9
C196.2 328.0 195.2 328.2 192.6 330.0Z" />
<path d="M241.3 329.5
C234.1 333.7 232.1 335.3 229.5 338.7
L226.5 342.5
L226.7 357.3
C226.7 365.5 227.1 374.1 227.5 376.3
C228.4 381.8 233.2 387.7 238.7 390.2
C242.7 391.9 244.3 392.1 251.9 391.3
C257.5 390.8 262.4 389.7 265.3 388.2
C271.6 385.2 273.1 380.8 274.3 362.9
C275.1 351.4 275.0 348.4 273.6 343.8
C271.7 337.3 266.6 332.0 259.8 329.6
C254.6 327.7 244.4 327.7 241.3 329.5Z
M241.0 336.8
C244.0 335.1 245.5 335.0 251.5 335.7
C264.5 337.2 266.5 340.5 266.5 360.0
C266.4 374.9 265.4 379.8 261.5 382.8
C255.9 387.2 245.0 386.7 239.5 381.8
C235.1 378.0 233.6 371.1 234.2 356.9
C234.7 343.9 236.3 339.4 241.0 336.8Z" />
<path d="M281.7 360.3
L281.5 390.5
L287.5 390.5
L289.0 350.6
L293.0 345.3
C297.5 339.5 298.9 338.5 304.3 337.5
C307.7 336.8 308.0 336.5 308.0 333.4
C308.0 330.1 307.9 330.0 304.1 330.0
C299.7 330.0 296.2 332.4 291.9 338.3
L289.0 342.3
L289.0 330.0
L282.0 330.0
L281.7 360.3Z" />
</g>
</svg>
